<svg width="173" height="37" viewBox="0 0 173 37" fill="none" xmlns="http://www.w3.org/2000/svg">
<path d="M63.1211 31.4141L52.4511 12.8423V31.4141H47.7219V5.85999H53.1025L63.6683 24.4709V5.85999H68.3975V31.4141H63.1211Z" fill="black"/>
<path d="M89.7375 23.4399H74.9376C75.4848 25.7499 77.4911 27.2117 80.214 27.2117C82.1161 27.2117 83.2495 26.6896 84.422 25.3062H89.4248C88.1481 29.2476 84.1745 31.4272 80.3182 31.4272C74.4816 31.4272 69.9739 27.0681 69.9739 21.4692C69.9739 15.8702 74.4295 11.3806 80.0446 11.3806C85.6597 11.3806 89.9069 15.7397 89.9069 21.678C89.9069 22.3697 89.8678 22.7873 89.7375 23.4399ZM80.1097 15.5961C77.3869 15.5961 75.5238 16.9404 74.7943 19.394H85.3861C84.7998 16.9404 82.9368 15.5961 80.1097 15.5961Z" fill="black"/>
<path d="M97.2547 15.557V31.4272H92.6688V15.557H90.428V11.3806H92.6688V5.85999H97.2547V11.3676H100.017V15.5439H97.2547V15.557Z" fill="black"/>
<path d="M109.032 21.0646H104.134V31.4141H101.58V5.85999H108.615C115.624 5.85999 118.451 8.24835 118.451 13.5993C118.451 18.4413 115.963 21.0646 109.032 21.0646ZM107.755 8.17004H104.134V18.7545H108.863C113.931 18.7545 115.872 17.3058 115.872 13.5993C115.872 8.41801 112.628 8.17004 107.768 8.17004H107.755Z" fill="black"/>
<path d="M122.568 19.7072V31.4011H120.015V11.8244H122.568V14.5259C123.571 12.4508 125.187 11.5242 127.91 11.3806V13.8995C124.353 14.2388 122.568 16.1834 122.568 19.7072Z" fill="black"/>
<path d="M138.02 31.4141C132.157 31.4141 127.91 27.1464 127.91 21.2734C127.91 15.4004 132.222 11.3676 137.811 11.3676C143.4 11.3676 147.608 15.5962 147.608 21.4431C147.608 27.29 143.544 31.4141 138.02 31.4141ZM137.811 13.7429C133.642 13.7429 130.502 16.9926 130.502 21.3387C130.502 25.6847 133.603 29.0388 137.954 29.0388C142.058 29.0388 145.029 25.8544 145.029 21.4822C145.029 17.1101 141.954 13.7559 137.824 13.7559L137.811 13.7429Z" fill="black"/>
<path d="M170.447 10.2191V5.85999H173V10.2191H170.447ZM170.447 31.4272V11.3676H173V31.4141H170.447V31.4272Z" fill="black"/>
<path d="M159.086 11.3676C156.129 11.3676 153.536 12.5813 151.738 14.5521V11.8374H149.185V37H151.738V28.2166C153.549 30.2134 156.194 31.4272 159.294 31.4272C164.818 31.4272 168.883 27.1986 168.883 21.4561C168.883 15.7136 164.74 11.3806 159.086 11.3806V11.3676ZM159.229 29.0388C154.878 29.0388 151.777 25.8152 151.777 21.3387C151.777 16.8621 154.917 13.7429 159.086 13.7429C163.255 13.7429 166.291 17.0318 166.291 21.4692C166.291 25.9066 163.32 29.0258 159.216 29.0258L159.229 29.0388Z" fill="black"/>
<path d="M12.2594 21.1559L31.4629 36.2691C33.6776 38.018 36.9216 36.4258 36.9216 33.6067V3.39331C36.9216 0.574263 33.6776 -1.01798 31.4629 0.730877L12.2594 15.8311C10.5397 17.1884 10.5397 19.7986 12.2594 21.1559Z" fill="#9F1127"/>
<path style="mix-blend-mode:multiply" d="M12.2594 21.1559L31.4629 36.2691C33.6776 38.018 36.9216 36.4258 36.9216 33.6067V3.39331C36.9216 0.574263 33.6776 -1.01798 31.4629 0.730877L12.2594 15.8311C10.5397 17.1884 10.5397 19.7986 12.2594 21.1559Z" fill="url(#paint0_linear_212_450)"/>
<path d="M24.6752 15.8311L5.45877 0.730874C3.24399 -1.01798 0 0.561209 0 3.39331V33.6067C0 36.4258 3.24399 38.018 5.45877 36.2691L24.6622 21.1559C26.3819 19.7986 26.3819 17.1884 24.6622 15.8311H24.6752Z" fill="#F71140"/>
<g style="mix-blend-mode:multiply">
<path d="M24.6752 21.1429L18.4608 26.024L19.3728 26.7418L24.7794 21.0385C24.7794 21.0385 24.7013 21.1037 24.6622 21.1429H24.6752Z" fill="#C2C3C9"/>
</g>
<defs>
<linearGradient id="paint0_linear_212_450" x1="36.9346" y1="18.5065" x2="10.9697" y2="18.5065" gradientUnits="userSpaceOnUse">
<stop stop-color="white" stop-opacity="0"/>
<stop offset="1" stop-color="#444242"/>
</linearGradient>
</defs>
</svg>
