<?xml version="1.0" encoding="UTF-8"?><svg id="Capa_2" xmlns="http://www.w3.org/2000/svg" viewBox="0 0 28.99 27"><g id="Capa_1-2"><path d="M28.57,0H12.05c-.23,0-.43,.19-.43,.42V7.07h.86V.85h15.66V21.14h-7.1v-.18h-.86v.18h-7.71v-7.43h-.86v7.85c0,.23,.19,.42,.43,.42h7.53l-3.59,3.55,.61,.6,3.59-3.55v3.8h.86v-3.8l3.59,3.55,.61-.6-3.59-3.55h6.92c.23,0,.43-.19,.43-.42V.42c0-.23-.19-.42-.43-.42h0Z"/><path d="M17.99,8.88c0-.23-.19-.42-.43-.42H5.33c-3.53,0-5.33,1.36-5.33,4.05v5.43c0,1.54,1.31,2.84,2.88,2.84v-.85c-1.07,0-2.02-.93-2.02-1.99v-5.43c0-1.37,.46-3.2,4.47-3.2h11.75c-.21,1.01-1.16,2.17-2.58,2.17h-4.89c-.23,0-.43,.19-.43,.42v15.1h.86V12.33h4.47c2.06,0,3.49-1.81,3.49-3.45h0Z"/><path d="M6.98,19.15h-.86v7.85h.86v-7.85Z"/><path d="M3.92,12.5h-.86v14.49h.86V12.5Z"/><path d="M6.85,7.49c1.82,0,3.18-1.22,3.18-2.84v-1.81c0-1.62-1.37-2.84-3.18-2.84S3.67,1.22,3.67,2.84v1.81c0,1.62,1.37,2.84,3.18,2.84h0ZM4.53,2.84c0-1.16,.98-1.99,2.33-1.99s2.33,.84,2.33,1.99v1.81c0,1.16-.98,1.99-2.33,1.99s-2.33-.84-2.33-1.99v-1.81Z"/></g></svg>